<?xml version="1.0" encoding="UTF-8"?><svg id="a" xmlns="http://www.w3.org/2000/svg" xmlns:xlink="http://www.w3.org/1999/xlink" viewBox="0 0 300 150"><defs><style>.e{fill:url(#d);}.f{fill:url(#c);}.g{fill:url(#b);}.h{letter-spacing:0em;}.i{letter-spacing:-.02em;}.j{letter-spacing:-.05em;}.k{fill:#fff;font-family:SourceSansPro-Semibold, Source Sans Pro;font-size:17px;font-weight:700;}.l{letter-spacing:0em;}.m{letter-spacing:-.03em;}.n{letter-spacing:-.03em;}</style><linearGradient id="b" x1="28.73" y1="75" x2="244.94" y2="75" gradientTransform="matrix(1, 0, 0, 1, 0, 0)" gradientUnits="userSpaceOnUse"><stop offset="0" stop-color="#1f42c0"/><stop offset=".27" stop-color="#146cd1"/><stop offset=".59" stop-color="#0996e3"/><stop offset=".85" stop-color="#02b1ee"/><stop offset=".99" stop-color="#00bbf3"/></linearGradient><linearGradient id="c" x1="23.23" y1="75" x2="276.77" y2="75" xlink:href="#b"/><linearGradient id="d" x1="238.02" y1="76.01" x2="266.99" y2="75.6" xlink:href="#b"/></defs><g><g><path class="g" d="M244.94,57.48H46.78c-9.61,0-17.71,7.57-18.04,16.88-.17,4.8,1.57,9.34,4.9,12.8,3.34,3.46,7.82,5.37,12.61,5.37H244.94c-6.3-3.31-10.61-9.91-10.61-17.52s4.3-14.21,10.61-17.52Z"/><path class="f" d="M253.75,51.98H46.25c-12.71,0-23.02,10.31-23.02,23.02s10.31,23.02,23.02,23.02H253.75c12.71,0,23.02-10.31,23.02-23.02s-10.31-23.02-23.02-23.02Zm11.87,39.11c-3.33,2.46-7.42,3.93-11.87,3.93H46.25c-11.28,0-20.42-9.38-20.01-20.76,.39-10.86,9.67-19.29,20.54-19.29H253.22c2.21,0,4.34,.36,6.36,1.01,8.27,2.37,14.33,9.98,14.33,19.01,0,6.64-3.28,12.5-8.3,16.09Z"/></g><path class="e" d="M263.67,68.53l-5.08-1.38c-.11-1.74-1.31-3.3-3.1-3.79-1.8-.49-3.63,.26-4.59,1.71l-5.08-1.38c-.74-.19-1.5,.24-1.71,.99-.19,.74,.25,1.5,.99,1.71l5.08,1.36h0c.1,1.75,1.31,3.3,3.1,3.79,1.8,.49,3.62-.25,4.59-1.7l5.08,1.36c.74,.19,1.5-.24,1.7-.97,.21-.75-.24-1.52-.97-1.71Zm-7.89-.68c-.17,.64-.77,1.06-1.39,1.06-.14,.01-.26-.01-.38-.04-.14-.04-.25-.08-.36-.15-.57-.33-.85-1-.68-1.63,.18-.63,.74-1.06,1.36-1.07,.14,0,.29,0,.43,.04,.15,.04,.28,.1,.4,.18,.52,.32,.78,.97,.61,1.61Zm9.31,9.08l-2.44-4.22c-.14-.24-.38-.35-.61-.35s-.46,.11-.6,.35l-2.44,4.22-3.02,5.23c0,3.35,2.71,6.07,6.06,6.07s6.07-2.71,6.07-6.07l-3.02-5.23Zm-7.5,5.23l3.45-5.99,1-1.73,1,1.73,3.46,5.99h-8.92Zm-8.04-9.28l-2.44-4.22c-.14-.24-.38-.35-.61-.35s-.46,.11-.6,.35l-2.44,4.22-3.02,5.23c0,3.35,2.71,6.07,6.06,6.07s6.07-2.71,6.07-6.07l-3.02-5.23Zm-7.5,5.23l3.45-5.99,1-1.73,1,1.73,3.46,5.99h-8.92Z"/></g><text class="k" transform="translate(80.66 72.69)"><tspan class="m" x="0" y="0">C</tspan><tspan x="9.25" y="0">OM</tspan><tspan class="j" x="33.4" y="0">P</tspan><tspan x="42.47" y="0">ARE </tspan><tspan class="i" x="74.65" y="0">Y</tspan><tspan x="82.92" y="0">OUR </tspan><tspan class="i" x="-20.44" y="16">C</tspan><tspan x="-10.91" y="16">URRENT MO</tspan><tspan class="i" x="77.61" y="16">R</tspan><tspan class="n" x="87.44" y="16">T</tspan><tspan class="h" x="96.29" y="16">G</tspan><tspan class="l" x="106.89" y="16">A</tspan><tspan x="116.24" y="16">GE</tspan></text></svg>