<?xml version="1.0" encoding="UTF-8"?><svg id="a" xmlns="http://www.w3.org/2000/svg" xmlns:xlink="http://www.w3.org/1999/xlink" viewBox="0 0 300 150"><defs><style>.f{fill:url(#e);}.g{fill:url(#d);}.h{fill:url(#c);}.i{fill:#fff;font-family:SourceSansPro-Semibold, Source Sans Pro;font-size:23px;font-weight:700;}</style><linearGradient id="c" x1="60.05" y1="75" x2="213.62" y2="75" gradientTransform="matrix(1, 0, 0, 1, 0, 0)" gradientUnits="userSpaceOnUse"><stop offset="0" stop-color="#1f42c0"/><stop offset=".27" stop-color="#146cd1"/><stop offset=".59" stop-color="#0996e3"/><stop offset=".85" stop-color="#02b1ee"/><stop offset=".99" stop-color="#00bbf3"/></linearGradient><linearGradient id="d" x1="54.55" y1="75" x2="245.45" y2="75" xlink:href="#c"/><linearGradient id="e" x1="206.93" y1="74.98" x2="234.7" y2="74.98" gradientTransform="matrix(1, 0, 0, 1, 0, 0)" gradientUnits="userSpaceOnUse"><stop offset="0" stop-color="#1f42c0"/><stop offset=".16" stop-color="#1b4ec5"/><stop offset=".45" stop-color="#136ed2"/><stop offset=".83" stop-color="#06a2e8"/><stop offset=".99" stop-color="#00bbf3"/></linearGradient></defs><g id="b"><g><g><path class="h" d="M213.62,57.48H78.1c-9.61,0-17.71,7.57-18.04,16.88-.17,4.8,1.57,9.34,4.9,12.8,3.34,3.46,7.82,5.37,12.61,5.37H213.62c-6.3-3.31-10.61-9.91-10.61-17.52s4.3-14.21,10.61-17.52Z"/><path class="g" d="M222.43,51.98H77.57c-12.71,0-23.02,10.31-23.02,23.02s10.31,23.02,23.02,23.02H222.43c12.71,0,23.02-10.31,23.02-23.02s-10.31-23.02-23.02-23.02Zm11.87,39.11c-3.33,2.46-7.42,3.93-11.87,3.93H77.57c-11.28,0-20.42-9.38-20.01-20.76,.39-10.86,9.67-19.29,20.54-19.29H221.9c2.21,0,4.34,.36,6.36,1.01,8.27,2.37,14.33,9.98,14.33,19.01,0,6.64-3.28,12.5-8.3,16.09Z"/></g><path class="f" d="M227.75,66.29l1.22-3.99c.1-.34,.02-.7-.22-.96-.23-.26-.59-.38-.94-.31l-3.38,.68-3.28-.68c-.34-.07-.7,.04-.94,.3-.24,.27-.32,.63-.22,.97l1.21,3.95c-3.6,1.32-6.18,4.79-6.18,8.84,0,1.88,.56,3.63,1.52,5.1,.48-.25,1.02-.38,1.56-.38h.63c-1.07-1.28-1.71-2.93-1.71-4.72,0-4.09,3.32-7.41,7.41-7.41,.61,0,1.21,.08,1.78,.22,3.22,.8,5.62,3.72,5.62,7.19,0,2.82-1.58,5.27-3.91,6.52,1.67-.4,3.43-.83,4.1-.99,1.14-1.55,1.81-3.47,1.81-5.53,0-4.02-2.53-7.46-6.08-8.8Zm-1.94-.51c-.45-.07-.91-.1-1.38-.1-.44,0-.87,.03-1.29,.09l-.74-2.44,1.82,.38c.14,.02,.27,.03,.4,0l1.94-.39-.75,2.46Zm-1.04,4.85v.47c.31,.03,.57,.09,.79,.19s.41,.24,.58,.43c.13,.15,.23,.3,.3,.45s.11,.3,.11,.43c0,.14-.05,.27-.16,.37s-.23,.16-.38,.16c-.28,0-.46-.15-.55-.46-.09-.36-.32-.6-.69-.72v1.8c.36,.1,.64,.19,.85,.27s.4,.2,.57,.35c.18,.16,.32,.35,.41,.57s.14,.46,.14,.72c0,.33-.08,.63-.23,.92s-.38,.52-.68,.7-.65,.29-1.07,.32v1.07c0,.17-.02,.29-.05,.37s-.11,.12-.22,.12c-.1,0-.18-.03-.22-.09s-.06-.16-.06-.29v-1.17c-.34-.04-.63-.12-.88-.24s-.46-.27-.63-.45-.29-.37-.37-.56-.12-.38-.12-.57c0-.14,.05-.26,.16-.37s.24-.17,.4-.17c.13,0,.24,.03,.33,.09s.15,.15,.19,.25c.08,.24,.15,.42,.2,.54s.14,.24,.26,.34,.27,.18,.46,.24v-2.01c-.39-.11-.71-.22-.97-.36s-.47-.32-.63-.56-.24-.55-.24-.93c0-.49,.16-.9,.47-1.22s.77-.5,1.37-.55v-.46c0-.24,.09-.36,.27-.36s.28,.12,.28,.35Zm-.55,2.96v-1.65c-.24,.07-.43,.17-.57,.28s-.2,.3-.2,.54,.06,.4,.19,.52,.32,.22,.58,.32Zm.55,1.28v1.89c.29-.06,.52-.17,.67-.35s.24-.38,.24-.61c0-.25-.08-.44-.23-.58s-.38-.25-.68-.35Zm-11.51-1.41h-3.18c-.55,0-1-.45-1-1s.45-1,1-1h3.18c.55,0,1,.45,1,1s-.45,1-1,1Zm0,3.35h-5.34c-.55,0-1-.45-1-1s.45-1,1-1h5.34c.55,0,1,.45,1,1s-.45,1-1,1Zm20.32,6.85c-1.54,1.22-7.8,3.92-10.42,5.03-.39,.17-.81,.25-1.24,.25h-9.37c-.55,0-1-.44-1-1s.45-1,1-1h9.37c.16,0,.31-.03,.46-.09,2.95-1.25,6.51-2.83,8.54-3.91-.69,.17-1.5,.37-2.31,.56-1.99,.48-3.95,.96-3.95,.96-.08,.02-.16,.03-.23,.03h-3.48c-.55,0-1-.45-1-1,0-.04,0-.09,.01-.13,.06-.49,.48-.87,.99-.87h2.95l.03-.03c.12-.1,.23-.24,.23-.4,0-.11-.04-.2-.07-.25h-5.99c-.07,0-.15,.01-.22,.01-.2,.04-.4,.11-.58,.22l-2.1,1.33c-.42,.26-.89,.4-1.38,.4h-1.27c-.55,0-1-.45-1-1s.45-1,1-1h1.27c.11,0,.22-.03,.31-.09l2.11-1.33c.1-.06,.19-.12,.3-.16,.48-.25,1.02-.38,1.56-.38h6.12c.83,0,1.59,.65,1.85,1.58,.06,.2,.09,.42,.09,.65,.54-.13,1.14-.28,1.76-.43,1.67-.4,3.43-.83,4.1-.99,.14-.03,.23-.05,.27-.06,.55-.13,1.84-.09,2.28,.82,.34,.72,.01,1.49-.99,2.28Z"/></g><text class="i" transform="translate(69.91 82.68)"><tspan x="0" y="0">EARN MONEY</tspan></text></g></svg>