<?xml version="1.0" encoding="UTF-8"?><svg id="a" xmlns="http://www.w3.org/2000/svg" xmlns:xlink="http://www.w3.org/1999/xlink" viewBox="0 0 300 150"><defs><style>.f{fill:url(#e);}.g{fill:url(#d);}.h{fill:url(#c);}.i{fill:#fff;font-family:SourceSansPro-Semibold, Source Sans Pro;font-size:23px;font-weight:700;}.j{letter-spacing:0em;}</style><linearGradient id="c" x1="74.45" y1="75" x2="199.22" y2="75" gradientTransform="matrix(1, 0, 0, 1, 0, 0)" gradientUnits="userSpaceOnUse"><stop offset="0" stop-color="#1f42c0"/><stop offset=".27" stop-color="#146cd1"/><stop offset=".59" stop-color="#0996e3"/><stop offset=".85" stop-color="#02b1ee"/><stop offset=".99" stop-color="#00bbf3"/></linearGradient><linearGradient id="d" x1="68.95" y1="75" x2="231.05" y2="75" xlink:href="#c"/><linearGradient id="e" x1="-1338.88" y1="75" x2="-1315.66" y2="75" gradientTransform="translate(-1120.15) rotate(-180) scale(1 -1)" gradientUnits="userSpaceOnUse"><stop offset="0" stop-color="#00b8f1"/><stop offset=".25" stop-color="#00aeed"/><stop offset=".66" stop-color="#0093e4"/><stop offset="1" stop-color="#0079db"/></linearGradient></defs><g id="b"><g><g><path class="h" d="M199.22,57.48H92.5c-9.61,0-17.71,7.57-18.04,16.88-.17,4.8,1.57,9.34,4.9,12.8,3.34,3.46,7.82,5.37,12.61,5.37h107.25c-6.3-3.31-10.61-9.91-10.61-17.52s4.3-14.21,10.61-17.52Z"/><path class="g" d="M208.03,51.98H91.97c-12.71,0-23.02,10.31-23.02,23.02s10.31,23.02,23.02,23.02h116.06c12.71,0,23.02-10.31,23.02-23.02s-10.31-23.02-23.02-23.02Zm11.87,39.11c-3.33,2.46-7.42,3.93-11.87,3.93H91.97c-11.28,0-20.42-9.38-20.01-20.76,.39-10.86,9.67-19.29,20.54-19.29h115.01c2.21,0,4.34,.36,6.36,1.01,8.27,2.37,14.33,9.98,14.33,19.01,0,6.64-3.28,12.5-8.3,16.09Z"/></g><path class="f" d="M217.48,85.62c1.12-.99,1.22-2.69,.23-3.81l-5.81-6.56,6.17-7.08c.98-1.12,.86-2.83-.26-3.81-1.12-.98-2.83-.86-3.81,.26l-7.72,8.86c-.89,1.02-.89,2.55,.01,3.56l7.38,8.34c.53,.6,1.28,.91,2.02,.91,.64,0,1.27-.22,1.79-.68Zm-11.89,.68c-.75,0-1.49-.31-2.02-.91l-7.38-8.34c-.9-1.02-.9-2.54-.01-3.56l7.72-8.86c.98-1.12,2.69-1.24,3.81-.26,1.12,.98,1.24,2.68,.26,3.81l-6.17,7.08,5.81,6.56c.99,1.12,.88,2.82-.23,3.81-.51,.45-1.15,.68-1.79,.68Z"/></g><text class="i" transform="translate(90.8 82.68)"><tspan x="0" y="0">GO B</tspan><tspan class="j" x="48.35" y="0">A</tspan><tspan x="61" y="0">CK</tspan></text></g></svg>