<?xml version="1.0" encoding="UTF-8"?><svg id="a" xmlns="http://www.w3.org/2000/svg" xmlns:xlink="http://www.w3.org/1999/xlink" viewBox="0 0 300 150"><defs><style>.f{fill:url(#e);}.g{fill:url(#d);}.h{fill:url(#c);}.i{fill:#fff;font-family:SourceSansPro-Semibold, Source Sans Pro;font-size:23px;font-weight:700;}.j{letter-spacing:-.03em;}</style><linearGradient id="c" x1="74.45" y1="75" x2="199.22" y2="75" gradientTransform="matrix(1, 0, 0, 1, 0, 0)" gradientUnits="userSpaceOnUse"><stop offset="0" stop-color="#1f42c0"/><stop offset=".27" stop-color="#146cd1"/><stop offset=".59" stop-color="#0996e3"/><stop offset=".85" stop-color="#02b1ee"/><stop offset=".99" stop-color="#00bbf3"/></linearGradient><linearGradient id="d" x1="68.95" y1="75" x2="231.05" y2="75" xlink:href="#c"/><linearGradient id="e" x1="194.57" y1="74.88" x2="219.37" y2="75.07" xlink:href="#c"/></defs><g id="b"><g><g><path class="h" d="M199.22,57.48H92.5c-9.61,0-17.71,7.57-18.04,16.88-.17,4.8,1.57,9.34,4.9,12.8,3.34,3.46,7.82,5.37,12.61,5.37h107.25c-6.3-3.31-10.61-9.91-10.61-17.52s4.3-14.21,10.61-17.52Z"/><path class="g" d="M208.03,51.98H91.97c-12.71,0-23.02,10.31-23.02,23.02s10.31,23.02,23.02,23.02h116.06c12.71,0,23.02-10.31,23.02-23.02s-10.31-23.02-23.02-23.02Zm11.87,39.11c-3.33,2.46-7.42,3.93-11.87,3.93H91.97c-11.28,0-20.42-9.38-20.01-20.76,.39-10.86,9.67-19.29,20.54-19.29h115.01c2.21,0,4.34,.36,6.36,1.01,8.27,2.37,14.33,9.98,14.33,19.01,0,6.64-3.28,12.5-8.3,16.09Z"/></g><path class="f" d="M216.13,88.52h-11.06c-1.74,0-3.16-1.42-3.16-3.16v-1.16h1.97v1.16c0,.66,.53,1.19,1.19,1.19h11.06c.66,0,1.19-.53,1.19-1.19v-20.71c0-.66-.53-1.19-1.19-1.19h-11.06c-.66,0-1.19,.53-1.19,1.19v1.16h-1.97v-1.16c0-1.74,1.42-3.16,3.16-3.16h11.06c1.74,0,3.16,1.42,3.16,3.16v20.71c0,1.74-1.42,3.16-3.16,3.16Zm-21.54-11.21h9.91v4.27l6.65-6.57-6.65-6.57v4.27h-9.91v4.61Z"/></g><text class="i" transform="translate(103.76 82.68)"><tspan class="j" x="0" y="0">L</tspan><tspan x="10.83" y="0">OG IN</tspan></text></g></svg>