<?xml version="1.0" encoding="UTF-8"?><svg id="a" xmlns="http://www.w3.org/2000/svg" xmlns:xlink="http://www.w3.org/1999/xlink" viewBox="0 0 300 150"><defs><style>.f{fill:url(#e);}.g{fill:url(#d);}.h{fill:url(#c);}.i{fill:#fff;font-family:SourceSansPro-Semibold, Source Sans Pro;font-size:23px;font-weight:700;}.j{letter-spacing:0em;}</style><linearGradient id="c" x1="28.73" y1="75" x2="244.94" y2="75" gradientTransform="matrix(1, 0, 0, 1, 0, 0)" gradientUnits="userSpaceOnUse"><stop offset="0" stop-color="#1f42c0"/><stop offset=".27" stop-color="#146cd1"/><stop offset=".59" stop-color="#0996e3"/><stop offset=".85" stop-color="#02b1ee"/><stop offset=".99" stop-color="#00bbf3"/></linearGradient><linearGradient id="d" x1="23.23" y1="75" x2="276.77" y2="75" xlink:href="#c"/><linearGradient id="e" x1="242.63" y1="74.21" x2="267.87" y2="74.4" xlink:href="#c"/></defs><g id="b"><g><g><path class="h" d="M244.94,57.48H46.78c-9.61,0-17.71,7.57-18.04,16.88-.17,4.8,1.57,9.34,4.9,12.8,3.34,3.46,7.82,5.37,12.61,5.37H244.94c-6.3-3.31-10.61-9.91-10.61-17.52s4.3-14.21,10.61-17.52Z"/><path class="g" d="M253.75,51.98H46.25c-12.71,0-23.02,10.31-23.02,23.02s10.31,23.02,23.02,23.02H253.75c12.71,0,23.02-10.31,23.02-23.02s-10.31-23.02-23.02-23.02Zm11.87,39.11c-3.33,2.46-7.42,3.93-11.87,3.93H46.25c-11.28,0-20.42-9.38-20.01-20.76,.39-10.86,9.67-19.29,20.54-19.29H253.22c2.21,0,4.34,.36,6.36,1.01,8.27,2.37,14.33,9.98,14.33,19.01,0,6.64-3.28,12.5-8.3,16.09Z"/></g><path class="f" d="M258.27,76.47c2.29-1.42,3.82-3.94,3.82-6.82,0-4.43-3.6-8.03-8.03-8.03s-8.03,3.6-8.03,8.03c0,2.88,1.53,5.4,3.81,6.82-3.73,1.44-6.54,4.75-7.23,8.91-.02,.13-.04,.27-.06,.4-.07,.55,.32,1.05,.87,1.12,.04,0,.08,0,.13,0,.5,0,.93-.37,.99-.87,.01-.11,.03-.22,.05-.33,.77-4.65,4.75-8.02,9.47-8.02,2.03,0,3.97,.62,5.61,1.81,.45,.32,1.07,.22,1.4-.23,.32-.45,.22-1.07-.23-1.4-.8-.58-1.66-1.04-2.56-1.39Zm-10.24-6.82c0-3.33,2.71-6.03,6.03-6.03s6.03,2.71,6.03,6.03-2.71,6.03-6.03,6.03-6.03-2.71-6.03-6.03Zm19.49,12.26l-4.01,4.01-.74,.74c-.2,.2-.47,.31-.74,.31s-.53-.1-.74-.31l-2.55-2.55c-.41-.41-.41-1.07,0-1.48,.41-.41,1.07-.41,1.48,0l1.82,1.82,4.01-4.01c.41-.41,1.07-.41,1.48,0,.41,.41,.41,1.07,0,1.48Z"/></g><text class="i" transform="translate(33.55 82.68)"><tspan x="0" y="0">GET PRE-APPR</tspan><tspan class="j" x="144.3" y="0">O</tspan><tspan x="159.59" y="0">VED</tspan></text></g></svg>