<?xml version="1.0" encoding="UTF-8"?><svg id="a" xmlns="http://www.w3.org/2000/svg" xmlns:xlink="http://www.w3.org/1999/xlink" viewBox="0 0 300 150"><defs><style>.f{fill:url(#e);}.g{fill:url(#d);}.h{fill:url(#c);}.i{letter-spacing:-.01em;}.j{fill:#fff;font-family:SourceSansPro-Semibold, Source Sans Pro;font-size:23px;font-weight:700;}</style><linearGradient id="c" x1="28.73" y1="75" x2="244.94" y2="75" gradientTransform="matrix(1, 0, 0, 1, 0, 0)" gradientUnits="userSpaceOnUse"><stop offset="0" stop-color="#1f42c0"/><stop offset=".27" stop-color="#146cd1"/><stop offset=".59" stop-color="#0996e3"/><stop offset=".85" stop-color="#02b1ee"/><stop offset=".99" stop-color="#00bbf3"/></linearGradient><linearGradient id="d" x1="23.23" y1="75" x2="276.77" y2="75" xlink:href="#c"/><linearGradient id="e" x1="240.18" y1="75.06" x2="266.91" y2="74.97" xlink:href="#c"/></defs><g id="b"><g><g><path class="h" d="M244.94,57.48H46.78c-9.61,0-17.71,7.57-18.04,16.88-.17,4.8,1.57,9.34,4.9,12.8,3.34,3.46,7.82,5.37,12.61,5.37H244.94c-6.3-3.31-10.61-9.91-10.61-17.52s4.3-14.21,10.61-17.52Z"/><path class="g" d="M253.75,51.98H46.25c-12.71,0-23.02,10.31-23.02,23.02s10.31,23.02,23.02,23.02H253.75c12.71,0,23.02-10.31,23.02-23.02s-10.31-23.02-23.02-23.02Zm11.87,39.11c-3.33,2.46-7.42,3.93-11.87,3.93H46.25c-11.28,0-20.42-9.38-20.01-20.76,.39-10.86,9.67-19.29,20.54-19.29H253.22c2.21,0,4.34,.36,6.36,1.01,8.27,2.37,14.33,9.98,14.33,19.01,0,6.64-3.28,12.5-8.3,16.09Z"/></g><path class="f" d="M254.72,75.57c0,.58-.47,1.05-1.05,1.05h-10.72c-.59,0-1.05-.47-1.05-1.05s.46-1.05,1.05-1.05h1.18c-.01-.07-.01-.15-.01-.22,0-4.84,3.68-8.83,8.38-9.36v-.79c0-.58,.47-1.05,1.05-1.05s1.05,.47,1.05,1.05v8.43c0,.58-.47,1.05-1.05,1.05s-1.05-.47-1.05-1.05v-5.68c-3.64,.51-6.44,3.62-6.44,7.4,0,.07,0,.15,.01,.22h6.43l1.35,.02c.5,.08,.87,.52,.87,1.03Zm6.55-4.87c.46-.28,.6-.88,.32-1.33-1.06-1.73-2.69-3.09-4.57-3.84-.5-.2-1.06,.05-1.26,.54-.2,.5,.05,1.06,.54,1.26,1.5,.59,2.79,1.68,3.63,3.05,.18,.3,.5,.46,.83,.46,.17,0,.35-.05,.51-.14Zm4.94,6.15c0,1.8-.91,3.38-2.29,4.33-.33,.22-.67,.41-1.05,.55-.59,.24-1.24,.37-1.92,.37s-1.33-.13-1.92-.37c-.38-.14-.73-.33-1.05-.55-1.38-.95-2.29-2.53-2.29-4.33,0-2.9,2.36-5.26,5.26-5.26s5.26,2.36,5.26,5.26Zm-1.09,0c0-2.31-1.88-4.18-4.17-4.18s-4.17,1.88-4.17,4.18c0,1.38,.66,2.6,1.71,3.35,.16,.13,.33,.23,.51,.33h0c.58,.32,1.24,.5,1.96,.5s1.37-.18,1.96-.48h0c.18-.11,.35-.21,.51-.34,1.03-.75,1.71-1.97,1.71-3.35Zm-2.25,4.88v3.54l-1.59-1.26c-.19-.15-.46-.15-.65,0l-1.59,1.26v-3.54c-.38-.14-.73-.33-1.05-.55v5.18c0,.21,.12,.39,.31,.47,.07,.04,.15,.05,.22,.05,.12,0,.23-.03,.34-.12l2.11-1.69,2.11,1.69c.16,.13,.38,.16,.56,.06,.19-.08,.31-.26,.31-.47v-5.18c-.33,.22-.67,.41-1.05,.55Zm.42-6.23c-.2-.2-.53-.2-.73,0l-1.99,1.99-.9-.9c-.2-.2-.53-.2-.73,0-.2,.2-.2,.53,0,.73l1.27,1.27c.1,.1,.23,.15,.37,.15s.26-.05,.37-.15l.37-.37,1.99-1.99c.2-.2,.2-.53,0-.73Z"/></g><text class="j" transform="translate(34.99 82.68)"><tspan x="0" y="0">GET PRE-Q</tspan><tspan class="i" x="106.47" y="0">U</tspan><tspan x="121.23" y="0">ALIFIED</tspan></text></g></svg>