<?xml version="1.0" encoding="UTF-8"?><svg id="a" xmlns="http://www.w3.org/2000/svg" xmlns:xlink="http://www.w3.org/1999/xlink" viewBox="0 0 300 150"><defs><style>.f{fill:url(#e);}.g{fill:url(#d);}.h{fill:url(#c);}.i{fill:#fff;font-family:SourceSansPro-Semibold, Source Sans Pro;font-size:23px;font-weight:700;}</style><linearGradient id="c" x1="74.45" y1="75" x2="199.22" y2="75" gradientTransform="matrix(1, 0, 0, 1, 0, 0)" gradientUnits="userSpaceOnUse"><stop offset="0" stop-color="#1f42c0"/><stop offset=".27" stop-color="#146cd1"/><stop offset=".59" stop-color="#0996e3"/><stop offset=".85" stop-color="#02b1ee"/><stop offset=".99" stop-color="#00bbf3"/></linearGradient><linearGradient id="d" x1="68.95" y1="75" x2="231.05" y2="75" xlink:href="#c"/><linearGradient id="e" x1="189.6" y1="75.1" x2="223.15" y2="74.81" xlink:href="#c"/></defs><g id="b"><g><g><path class="h" d="M199.22,57.48H92.5c-9.61,0-17.71,7.57-18.04,16.88-.17,4.8,1.57,9.34,4.9,12.8,3.34,3.46,7.82,5.37,12.61,5.37h107.25c-6.3-3.31-10.61-9.91-10.61-17.52s4.3-14.21,10.61-17.52Z"/><path class="g" d="M208.03,51.98H91.97c-12.71,0-23.02,10.31-23.02,23.02s10.31,23.02,23.02,23.02h116.06c12.71,0,23.02-10.31,23.02-23.02s-10.31-23.02-23.02-23.02Zm11.87,39.11c-3.33,2.46-7.42,3.93-11.87,3.93H91.97c-11.28,0-20.42-9.38-20.01-20.76,.39-10.86,9.67-19.29,20.54-19.29h115.01c2.21,0,4.34,.36,6.36,1.01,8.27,2.37,14.33,9.98,14.33,19.01,0,6.64-3.28,12.5-8.3,16.09Z"/></g><path class="f" d="M200.99,87.5c-1.49,0-2.7-1.01-2.7-2.25v-20.49c0-1.24,1.21-2.25,2.7-2.25s2.7,1.01,2.7,2.25v20.49c0,1.24-1.21,2.25-2.7,2.25Zm8.77-22.73l12.91,8.61c1.11,.74,1.11,2.57,0,3.31l-12.89,8.55c-1.12,.74-2.53-.18-2.53-1.65l-.02-17.16c0-1.48,1.41-2.41,2.54-1.66Z"/></g><text class="i" transform="translate(120.32 82.68)"><tspan x="0" y="0">SKIP</tspan></text></g></svg>