<?xml version="1.0" encoding="UTF-8"?><svg id="a" xmlns="http://www.w3.org/2000/svg" xmlns:xlink="http://www.w3.org/1999/xlink" viewBox="0 0 300 150"><defs><style>.f{fill:url(#e);}.g{fill:url(#d);}.h{fill:url(#c);}.i{letter-spacing:-.02em;}.j{fill:#fff;font-family:SourceSansPro-Semibold, Source Sans Pro;font-size:23px;font-weight:700;}</style><linearGradient id="c" x1="69.41" y1="75" x2="204.26" y2="75" gradientTransform="matrix(1, 0, 0, 1, 0, 0)" gradientUnits="userSpaceOnUse"><stop offset="0" stop-color="#1f42c0"/><stop offset=".27" stop-color="#146cd1"/><stop offset=".59" stop-color="#0996e3"/><stop offset=".85" stop-color="#02b1ee"/><stop offset=".99" stop-color="#00bbf3"/></linearGradient><linearGradient id="d" x1="63.91" y1="75" x2="236.09" y2="75" xlink:href="#c"/><linearGradient id="e" x1="198.59" y1="76.3" x2="225.19" y2="75.39" xlink:href="#c"/></defs><g id="b"><g><g><path class="h" d="M204.26,57.48H87.46c-9.61,0-17.71,7.57-18.04,16.88-.17,4.8,1.57,9.34,4.9,12.8,3.34,3.46,7.82,5.37,12.61,5.37h117.33c-6.3-3.31-10.61-9.91-10.61-17.52s4.3-14.21,10.61-17.52Z"/><path class="g" d="M213.07,51.98H86.93c-12.71,0-23.02,10.31-23.02,23.02s10.31,23.02,23.02,23.02h126.14c12.71,0,23.02-10.31,23.02-23.02s-10.31-23.02-23.02-23.02Zm11.87,39.11c-3.33,2.46-7.42,3.93-11.87,3.93H86.93c-11.28,0-20.42-9.38-20.01-20.76,.39-10.86,9.67-19.29,20.54-19.29h125.09c2.21,0,4.34,.36,6.36,1.01,8.27,2.37,14.33,9.98,14.33,19.01,0,6.64-3.28,12.5-8.3,16.09Z"/></g><path class="f" d="M225.71,64.85s-.03-.09-.05-.13c-.02-.05-.04-.08-.07-.12-.03-.05-.05-.08-.08-.12-.03-.03-.06-.07-.09-.09-.03-.04-.06-.06-.09-.08-.04-.03-.08-.06-.13-.08-.07-.04-.16-.07-.23-.08-.07-.02-.14-.04-.21-.03-.16,0-.32,.02-.47,.08-.02,0-.03,0-.05,.02l-24.53,12.49c-.39,.2-.61,.63-.55,1.07,.07,.43,.4,.78,.84,.86l9.41,1.71-.03,4.91h0c0,.44,.26,.81,.66,.96,.12,.05,.24,.07,.37,.07,.29,0,.57-.12,.77-.35l2.71-3.06,5.7,3.82c.18,.12,.37,.18,.57,.18,.25,0,.34,0,.63-.19,.2-.13,.28-.34,.38-.62s4.56-20.72,4.56-20.72h0c.02-.08,.03-.16,.03-.23,0-.09-.02-.19-.04-.27Zm-22.92,12.38l17.69-9.01-9.6,10.47-8.09-1.46Zm8.47,5.79v-1.87l1.05,.69-1.05,1.18Zm8.34,1.45l-7.1-4.76,10.72-11.7-3.61,16.47Z"/></g><text class="j" transform="translate(77.83 82.68)"><tspan x="0" y="0">SU</tspan><tspan class="i" x="27.65" y="0">B</tspan><tspan x="41.03" y="0">SCRIBE</tspan></text></g></svg>