<?xml version="1.0" encoding="UTF-8"?><svg id="a" xmlns="http://www.w3.org/2000/svg" xmlns:xlink="http://www.w3.org/1999/xlink" viewBox="0 0 300 150"><defs><style>.f{fill:url(#e);}.g{fill:url(#d);}.h{fill:url(#c);}.i{letter-spacing:-.03em;}.j{fill:#fff;font-family:SourceSansPro-Semibold, Source Sans Pro;font-size:23px;font-weight:700;}.k{letter-spacing:0em;}</style><linearGradient id="c" x1="74.45" y1="75" x2="199.22" y2="75" gradientTransform="matrix(1, 0, 0, 1, 0, 0)" gradientUnits="userSpaceOnUse"><stop offset="0" stop-color="#1f42c0"/><stop offset=".27" stop-color="#146cd1"/><stop offset=".59" stop-color="#0996e3"/><stop offset=".85" stop-color="#02b1ee"/><stop offset=".99" stop-color="#00bbf3"/></linearGradient><linearGradient id="d" x1="68.95" y1="75" x2="231.05" y2="75" xlink:href="#c"/><linearGradient id="e" x1="196.02" y1="80.56" x2="225.75" y2="71.49" xlink:href="#c"/></defs><g id="b"><g><g><path class="h" d="M199.22,57.48H92.5c-9.61,0-17.71,7.57-18.04,16.88-.17,4.8,1.57,9.34,4.9,12.8,3.34,3.46,7.82,5.37,12.61,5.37h107.25c-6.3-3.31-10.61-9.91-10.61-17.52s4.3-14.21,10.61-17.52Z"/><path class="g" d="M208.03,51.98H91.97c-12.71,0-23.02,10.31-23.02,23.02s10.31,23.02,23.02,23.02h116.06c12.71,0,23.02-10.31,23.02-23.02s-10.31-23.02-23.02-23.02Zm11.87,39.11c-3.33,2.46-7.42,3.93-11.87,3.93H91.97c-11.28,0-20.42-9.38-20.01-20.76,.39-10.86,9.67-19.29,20.54-19.29h115.01c2.21,0,4.34,.36,6.36,1.01,8.27,2.37,14.33,9.98,14.33,19.01,0,6.64-3.28,12.5-8.3,16.09Z"/></g><path class="f" d="M210.01,89.85c-.16,0-.32-.04-.46-.12l-5.89-3.2c-1.34-.74-1.83-2.42-1.11-3.76,.35-.65,.94-1.12,1.65-1.33,.71-.21,1.46-.13,2.1,.22l1.4,.76v-9.25c0-1.36,.94-2.54,2.23-2.79,.82-.16,1.66,.05,2.3,.58,.64,.53,1.01,1.31,1.01,2.14v2.9c1.39,.27,3.16,.83,4.71,1.93,1.99,1.43,2.84,3.24,2.53,5.37-.28,1.92-.69,3.52-1.21,4.76-.21,.49-.77,.72-1.26,.51-.49-.21-.72-.77-.51-1.26,.45-1.07,.83-2.55,1.08-4.29,.21-1.43-.33-2.52-1.75-3.53-1.57-1.12-3.51-1.55-4.53-1.71-.57-.09-.98-.57-.98-1.15v-3.53c0-.25-.11-.49-.31-.65-.12-.1-.36-.24-.72-.18-.38,.07-.67,.46-.67,.9v10.53c0,.41-.22,.79-.57,1-.35,.21-.79,.22-1.15,.02l-2.52-1.37c-.2-.11-.43-.13-.65-.07-.22,.06-.39,.21-.5,.41-.22,.41-.07,.93,.34,1.16l5.89,3.21c.46,.26,.63,.84,.38,1.3-.17,.32-.5,.5-.84,.5Zm-14.38-14.79l2.21-1.16,2.21,1.16c.32,.17,.71,.14,1.01-.07,.3-.21,.44-.58,.38-.94l-.42-2.46,1.79-1.75c.26-.26,.36-.64,.24-.98-.11-.35-.41-.6-.78-.65l-2.47-.36-1.11-2.24c-.32-.66-1.4-.66-1.72,0l-1.11,2.24-2.47,.36c-.36,.05-.66,.31-.78,.65-.11,.35-.02,.73,.24,.98l1.79,1.75-.42,2.46c-.06,.36,.09,.72,.38,.94,.17,.12,.37,.18,.56,.18,.15,0,.31-.04,.45-.11Zm1.76-3.1l-.94,.49,.18-1.04c.05-.31-.05-.63-.28-.85l-.76-.74,1.05-.15c.31-.05,.58-.24,.72-.53l.47-.95,.47,.95c.14,.28,.41,.48,.72,.53l1.05,.15-.76,.74c-.23,.22-.33,.54-.28,.85l.18,1.04-.94-.49c-.14-.07-.29-.11-.45-.11s-.31,.04-.45,.11Zm9.18,3.1l.33-.17c.47-.25,.65-.83,.4-1.3-.02-.04-.05-.08-.08-.12l.35-2.06c.05-.31-.05-.63-.28-.85l-.76-.74,1.05-.15c.31-.05,.58-.24,.72-.53l.47-.95,.47,.95c.14,.28,.41,.48,.72,.53l1.73,.25c.05,.13,.12,.25,.22,.36,.37,.38,.98,.39,1.36,.02l.47-.46c.26-.26,.36-.64,.24-.98-.11-.35-.41-.6-.78-.65l-2.47-.36-1.11-2.24c-.32-.66-1.4-.66-1.72,0l-1.11,2.24-2.47,.36c-.36,.05-.66,.31-.78,.65-.11,.35-.02,.73,.24,.98l1.79,1.75-.42,2.46c-.06,.36,.09,.72,.38,.94,.17,.12,.37,.18,.56,.18,.15,0,.31-.04,.45-.11Zm10.94,0l2.21-1.16,2.21,1.16c.32,.17,.72,.14,1.01-.07,.3-.21,.44-.58,.38-.94l-.42-2.46,1.79-1.75c.26-.26,.36-.64,.24-.98-.11-.35-.41-.6-.78-.65l-2.47-.36-1.11-2.24c-.32-.66-1.4-.66-1.72,0l-1.11,2.24-2.47,.36c-.36,.05-.66,.31-.78,.65-.11,.35-.02,.73,.24,.98l1.79,1.75-.42,2.46c-.06,.36,.09,.72,.38,.94,.17,.12,.37,.18,.56,.18,.15,0,.31-.04,.45-.11Zm1.76-3.1l-.94,.49,.18-1.04c.05-.31-.05-.63-.28-.85l-.76-.74,1.05-.15c.31-.05,.58-.24,.72-.53l.47-.95,.47,.95c.14,.28,.41,.48,.72,.53l1.05,.15-.76,.74c-.23,.22-.33,.54-.28,.85l.18,1.04-.94-.49c-.14-.07-.29-.11-.45-.11s-.31,.04-.45,.11Z"/></g><text class="j" transform="translate(116.72 82.68)"><tspan class="k" x="0" y="0">V</tspan><tspan class="i" x="12.14" y="0">O</tspan><tspan x="27.07" y="0">TE</tspan></text></g></svg>